#
#
#

mtllib vp.mtl


#
# cube Mesh Mesh
#
g cube Mesh Mesh

v -0.311720 0.035280 -0.074739
v 0.227582 0.059680 -0.243727
v -0.023764 -0.234211 -0.141487
v -0.060374 0.329172 -0.176979
v 0.057550 0.360831 0.203930
v -0.193796 0.066940 0.306170
v 0.345506 0.091339 0.137182
v 0.094160 -0.202552 0.239422
vn -0.294810 -0.079148 -0.952272
vn -0.719891 0.673729 0.166872
vn 0.628366 0.734728 -0.255600
vn 0.719891 -0.673729 -0.166872
vn -0.628366 -0.734728 0.255600
vn 0.294810 0.079148 0.952272
f 1//1 2//1 3//1
f 1//1 4//1 2//1
f 1//2 5//2 4//2
f 1//2 6//2 5//2
f 4//3 7//3 2//3
f 4//3 5//3 7//3
f 3//4 2//4 7//4
f 3//4 7//4 8//4
f 1//5 3//5 8//5
f 1//5 8//5 6//5
f 6//6 8//6 7//6
f 6//6 7//6 5//6
